<mxfile host="app.diagrams.net" modified="2022-05-17T04:44:19.858Z" agent="5.0 (Windows NT 10.0; Win64; x64) AppleWebKit/537.36 (KHTML, like Gecko) Chrome/101.0.4951.54 Safari/537.36" etag="-FLF1C4cQh_VCLKlpEXh" version="18.0.6" type="github">
  <diagram id="C5RBs43oDa-KdzZeNtuy" name="Page-1">
    <mxGraphModel dx="2585" dy="1371" grid="1" gridSize="10" guides="1" tooltips="1" connect="1" arrows="1" fold="1" page="1" pageScale="1" pageWidth="827" pageHeight="1169" math="0" shadow="0">
      <root>
        <mxCell id="WIyWlLk6GJQsqaUBKTNV-0" />
        <mxCell id="WIyWlLk6GJQsqaUBKTNV-1" parent="WIyWlLk6GJQsqaUBKTNV-0" />
        <mxCell id="WIyWlLk6GJQsqaUBKTNV-2" value="" style="rounded=0;html=1;jettySize=auto;orthogonalLoop=1;fontSize=11;endArrow=block;endFill=0;endSize=8;strokeWidth=1;shadow=0;labelBackgroundColor=none;edgeStyle=orthogonalEdgeStyle;" parent="WIyWlLk6GJQsqaUBKTNV-1" source="WIyWlLk6GJQsqaUBKTNV-3" target="WIyWlLk6GJQsqaUBKTNV-6" edge="1">
          <mxGeometry relative="1" as="geometry" />
        </mxCell>
        <mxCell id="Z0KAt07NpcqvbO9-bu92-32" value="" style="edgeStyle=orthogonalEdgeStyle;rounded=0;orthogonalLoop=1;jettySize=auto;html=1;entryX=0;entryY=0.5;entryDx=0;entryDy=0;exitX=0.5;exitY=1;exitDx=0;exitDy=0;" edge="1" parent="WIyWlLk6GJQsqaUBKTNV-1" source="WIyWlLk6GJQsqaUBKTNV-6" target="WIyWlLk6GJQsqaUBKTNV-7">
          <mxGeometry relative="1" as="geometry" />
        </mxCell>
        <mxCell id="Z0KAt07NpcqvbO9-bu92-37" value="" style="edgeStyle=orthogonalEdgeStyle;rounded=0;orthogonalLoop=1;jettySize=auto;html=1;" edge="1" parent="WIyWlLk6GJQsqaUBKTNV-1" source="WIyWlLk6GJQsqaUBKTNV-6" target="Z0KAt07NpcqvbO9-bu92-36">
          <mxGeometry relative="1" as="geometry" />
        </mxCell>
        <mxCell id="WIyWlLk6GJQsqaUBKTNV-6" value="Lost Pet" style="rhombus;whiteSpace=wrap;html=1;shadow=0;fontFamily=Helvetica;fontSize=12;align=center;strokeWidth=1;spacing=6;spacingTop=-4;" parent="WIyWlLk6GJQsqaUBKTNV-1" vertex="1">
          <mxGeometry x="194" y="380.06" width="100" height="80" as="geometry" />
        </mxCell>
        <mxCell id="Z0KAt07NpcqvbO9-bu92-6" style="edgeStyle=orthogonalEdgeStyle;rounded=0;orthogonalLoop=1;jettySize=auto;html=1;exitX=0.5;exitY=1;exitDx=0;exitDy=0;" edge="1" parent="WIyWlLk6GJQsqaUBKTNV-1">
          <mxGeometry relative="1" as="geometry">
            <mxPoint x="554" y="370.06" as="sourcePoint" />
            <mxPoint x="554" y="370.06" as="targetPoint" />
          </mxGeometry>
        </mxCell>
        <mxCell id="Z0KAt07NpcqvbO9-bu92-11" value="" style="rounded=0;html=1;jettySize=auto;orthogonalLoop=1;fontSize=11;endArrow=block;endFill=0;endSize=8;strokeWidth=1;shadow=0;labelBackgroundColor=none;edgeStyle=orthogonalEdgeStyle;" edge="1" parent="WIyWlLk6GJQsqaUBKTNV-1" target="Z0KAt07NpcqvbO9-bu92-12" source="WIyWlLk6GJQsqaUBKTNV-3">
          <mxGeometry relative="1" as="geometry">
            <mxPoint x="483.99999999999994" y="260.06" as="sourcePoint" />
          </mxGeometry>
        </mxCell>
        <mxCell id="Z0KAt07NpcqvbO9-bu92-33" value="" style="edgeStyle=orthogonalEdgeStyle;rounded=0;orthogonalLoop=1;jettySize=auto;html=1;entryX=1;entryY=0.5;entryDx=0;entryDy=0;exitX=0.5;exitY=1;exitDx=0;exitDy=0;" edge="1" parent="WIyWlLk6GJQsqaUBKTNV-1" source="Z0KAt07NpcqvbO9-bu92-12" target="WIyWlLk6GJQsqaUBKTNV-7">
          <mxGeometry relative="1" as="geometry" />
        </mxCell>
        <mxCell id="Z0KAt07NpcqvbO9-bu92-38" value="" style="edgeStyle=orthogonalEdgeStyle;rounded=0;orthogonalLoop=1;jettySize=auto;html=1;" edge="1" parent="WIyWlLk6GJQsqaUBKTNV-1" source="Z0KAt07NpcqvbO9-bu92-12" target="Z0KAt07NpcqvbO9-bu92-36">
          <mxGeometry relative="1" as="geometry" />
        </mxCell>
        <mxCell id="Z0KAt07NpcqvbO9-bu92-12" value="Found Pet" style="rhombus;whiteSpace=wrap;html=1;shadow=0;fontFamily=Helvetica;fontSize=12;align=center;strokeWidth=1;spacing=6;spacingTop=-4;" vertex="1" parent="WIyWlLk6GJQsqaUBKTNV-1">
          <mxGeometry x="534" y="380.06" width="100" height="80" as="geometry" />
        </mxCell>
        <mxCell id="Z0KAt07NpcqvbO9-bu92-22" value="" style="edgeStyle=orthogonalEdgeStyle;rounded=0;orthogonalLoop=1;jettySize=auto;html=1;" edge="1" parent="WIyWlLk6GJQsqaUBKTNV-1" source="WIyWlLk6GJQsqaUBKTNV-7" target="Z0KAt07NpcqvbO9-bu92-21">
          <mxGeometry relative="1" as="geometry" />
        </mxCell>
        <mxCell id="WIyWlLk6GJQsqaUBKTNV-7" value="Id" style="rounded=1;whiteSpace=wrap;html=1;fontSize=12;glass=0;strokeWidth=1;shadow=0;arcSize=27;" parent="WIyWlLk6GJQsqaUBKTNV-1" vertex="1">
          <mxGeometry x="348" y="590.06" width="120" height="40" as="geometry" />
        </mxCell>
        <mxCell id="Z0KAt07NpcqvbO9-bu92-35" value="" style="edgeStyle=orthogonalEdgeStyle;rounded=0;orthogonalLoop=1;jettySize=auto;html=1;" edge="1" parent="WIyWlLk6GJQsqaUBKTNV-1" source="Z0KAt07NpcqvbO9-bu92-21" target="Z0KAt07NpcqvbO9-bu92-34">
          <mxGeometry relative="1" as="geometry" />
        </mxCell>
        <mxCell id="Z0KAt07NpcqvbO9-bu92-21" value="Microchip&lt;br&gt;qr code?" style="rounded=1;whiteSpace=wrap;html=1;fontSize=12;glass=0;strokeWidth=1;shadow=0;arcSize=23;" vertex="1" parent="WIyWlLk6GJQsqaUBKTNV-1">
          <mxGeometry x="348" y="650.06" width="120" height="40" as="geometry" />
        </mxCell>
        <mxCell id="WIyWlLk6GJQsqaUBKTNV-3" value="Pet&lt;br&gt;claims as" style="rounded=1;whiteSpace=wrap;html=1;fontSize=12;glass=0;strokeWidth=1;shadow=0;arcSize=35;" parent="WIyWlLk6GJQsqaUBKTNV-1" vertex="1">
          <mxGeometry x="348" y="330.06" width="120" height="40" as="geometry" />
        </mxCell>
        <mxCell id="Z0KAt07NpcqvbO9-bu92-29" value="" style="edgeStyle=orthogonalEdgeStyle;rounded=0;orthogonalLoop=1;jettySize=auto;html=1;endArrow=none;" edge="1" parent="WIyWlLk6GJQsqaUBKTNV-1">
          <mxGeometry relative="1" as="geometry">
            <mxPoint x="416" y="310.06" as="sourcePoint" />
            <mxPoint x="410.0588235294117" y="330.06" as="targetPoint" />
          </mxGeometry>
        </mxCell>
        <mxCell id="Z0KAt07NpcqvbO9-bu92-44" value="" style="edgeStyle=orthogonalEdgeStyle;rounded=0;orthogonalLoop=1;jettySize=auto;html=1;" edge="1" parent="WIyWlLk6GJQsqaUBKTNV-1" source="Z0KAt07NpcqvbO9-bu92-34" target="Z0KAt07NpcqvbO9-bu92-43">
          <mxGeometry relative="1" as="geometry" />
        </mxCell>
        <mxCell id="Z0KAt07NpcqvbO9-bu92-34" value="Location&lt;br&gt;last seen" style="rounded=1;whiteSpace=wrap;html=1;fontSize=12;glass=0;strokeWidth=1;shadow=0;arcSize=21;" vertex="1" parent="WIyWlLk6GJQsqaUBKTNV-1">
          <mxGeometry x="348" y="710.06" width="120" height="40" as="geometry" />
        </mxCell>
        <mxCell id="Z0KAt07NpcqvbO9-bu92-40" value="" style="edgeStyle=orthogonalEdgeStyle;rounded=0;orthogonalLoop=1;jettySize=auto;html=1;" edge="1" parent="WIyWlLk6GJQsqaUBKTNV-1" source="Z0KAt07NpcqvbO9-bu92-36" target="Z0KAt07NpcqvbO9-bu92-39">
          <mxGeometry relative="1" as="geometry" />
        </mxCell>
        <mxCell id="Z0KAt07NpcqvbO9-bu92-36" value="Species" style="whiteSpace=wrap;html=1;shadow=0;strokeWidth=1;spacing=6;spacingTop=-4;" vertex="1" parent="WIyWlLk6GJQsqaUBKTNV-1">
          <mxGeometry x="348" y="390.06" width="120" height="40" as="geometry" />
        </mxCell>
        <mxCell id="Z0KAt07NpcqvbO9-bu92-42" value="" style="edgeStyle=orthogonalEdgeStyle;rounded=0;orthogonalLoop=1;jettySize=auto;html=1;" edge="1" parent="WIyWlLk6GJQsqaUBKTNV-1" source="Z0KAt07NpcqvbO9-bu92-39" target="Z0KAt07NpcqvbO9-bu92-41">
          <mxGeometry relative="1" as="geometry" />
        </mxCell>
        <mxCell id="Z0KAt07NpcqvbO9-bu92-39" value="Sex" style="whiteSpace=wrap;html=1;shadow=0;strokeWidth=1;spacing=6;spacingTop=-4;" vertex="1" parent="WIyWlLk6GJQsqaUBKTNV-1">
          <mxGeometry x="348" y="450.06" width="120" height="40" as="geometry" />
        </mxCell>
        <mxCell id="Z0KAt07NpcqvbO9-bu92-41" value="Age" style="whiteSpace=wrap;html=1;shadow=0;strokeWidth=1;spacing=6;spacingTop=-4;" vertex="1" parent="WIyWlLk6GJQsqaUBKTNV-1">
          <mxGeometry x="348" y="510.06" width="120" height="40" as="geometry" />
        </mxCell>
        <mxCell id="Z0KAt07NpcqvbO9-bu92-43" value="Photo" style="rounded=1;whiteSpace=wrap;html=1;fontSize=12;glass=0;strokeWidth=1;shadow=0;arcSize=26;" vertex="1" parent="WIyWlLk6GJQsqaUBKTNV-1">
          <mxGeometry x="348" y="770.06" width="120" height="40" as="geometry" />
        </mxCell>
        <mxCell id="Z0KAt07NpcqvbO9-bu92-46" value="&lt;span style=&quot;&quot;&gt;&lt;br&gt;&lt;br&gt;User&amp;nbsp;&lt;/span&gt;&lt;br style=&quot;&quot;&gt;&lt;span style=&quot;&quot;&gt;logs in/out&lt;/span&gt;" style="shape=actor;whiteSpace=wrap;html=1;" vertex="1" parent="WIyWlLk6GJQsqaUBKTNV-1">
          <mxGeometry x="368" y="220.06" width="80" height="90" as="geometry" />
        </mxCell>
      </root>
    </mxGraphModel>
  </diagram>
</mxfile>
